<svg width="500" height="500" viewBox="0 0 500 500" fill="none" xmlns="http://www.w3.org/2000/svg">
<path d="M232.5 27.4241C243.329 21.172 256.671 21.172 267.5 27.4241L434.006 123.557C444.835 129.809 451.506 141.363 451.506 153.868V346.132C451.506 358.637 444.835 370.191 434.006 376.443L267.5 472.576C256.671 478.828 243.329 478.828 232.5 472.576L65.9937 376.443C55.1646 370.191 48.4937 358.637 48.4937 346.132V153.868C48.4937 141.363 55.1646 129.809 65.9937 123.557L232.5 27.4241Z" stroke="#2EFE81" stroke-width="30"/>
<rect x="332.926" y="142.639" width="82.6433" height="41.3216" rx="20.6608" transform="rotate(90 332.926 142.639)" fill="#2EFE81"/>
<rect x="182.75" y="134.375" width="107.436" height="33.0573" rx="10" transform="rotate(45 182.75 134.375)" fill="#2EFE81"/>
<rect x="159.375" y="210.344" width="107.436" height="33.0573" rx="10" transform="rotate(-45 159.375 210.344)" fill="#2EFE81"/>
<rect x="159.375" y="266.604" width="181.815" height="33.0573" rx="10" fill="#2EFE81"/>
<path d="M233.596 283.312C233.596 278.745 237.299 275.042 241.866 275.042H332.98C337.548 275.042 341.25 278.745 341.25 283.312V312.183C341.25 341.911 317.151 366.01 287.423 366.01C257.695 366.01 233.596 341.911 233.596 312.183L233.596 283.312Z" fill="#2EFE81"/>
</svg>
