<svg width="800" height="800" viewBox="0 0 800 800" fill="none" xmlns="http://www.w3.org/2000/svg">
<path d="M382.5 27.4241C393.329 21.172 406.671 21.172 417.5 27.4241L713.91 198.557C724.739 204.809 731.41 216.363 731.41 228.868V571.132C731.41 583.637 724.739 595.191 713.91 601.443L417.5 772.576C406.671 778.828 393.329 778.828 382.5 772.576L86.0899 601.443C75.2608 595.191 68.5898 583.637 68.5898 571.133V228.868C68.5898 216.363 75.2608 204.809 86.0898 198.557L382.5 27.4241Z" stroke="#2EFE81" stroke-width="30"/>
<rect x="532.681" y="228.223" width="132.229" height="66.1146" rx="33.0573" transform="rotate(90 532.681 228.223)" fill="#2EFE81"/>
<rect x="292.4" y="215" width="171.898" height="52.8917" rx="10" transform="rotate(45 292.4 215)" fill="#2EFE81"/>
<rect x="255" y="336.55" width="171.898" height="52.8917" rx="10" transform="rotate(-45 255 336.55)" fill="#2EFE81"/>
<rect x="255" y="426.567" width="290.904" height="52.8917" rx="10" fill="#2EFE81"/>
<path d="M373.754 453.3C373.754 450.295 373.754 448.792 374.074 447.557C374.986 444.044 377.73 441.3 381.243 440.388C382.478 440.068 383.981 440.068 386.986 440.068H532.768C535.773 440.068 537.276 440.068 538.511 440.388C542.024 441.3 544.768 444.044 545.68 447.557C546 448.792 546 450.295 546 453.3V499.493C546 547.057 507.441 585.616 459.877 585.616C412.313 585.616 373.754 547.057 373.754 499.493L373.754 453.3Z" fill="#2EFE81"/>
</svg>
